<svg width="110" height="19" viewBox="0 0 110 19" fill="none" xmlns="http://www.w3.org/2000/svg">
<path d="M28.9077 6.29785H30.7285L27.8174 14H26.2437L23.2305 6.29785H25.0728L27.0171 11.7441L28.9077 6.29785ZM33.4141 12.4478H36.4917V14H31.749V6.29785H36.3735V7.83936H33.4141V9.35938H36.0835V10.8687H33.4141V12.4478ZM42.1313 14L40.6274 11.3735H39.5586V14H37.8936V6.29785H41.0034C41.7769 6.29785 42.4178 6.53955 42.9263 7.02295C43.4383 7.50277 43.6943 8.11149 43.6943 8.84912C43.6943 9.34684 43.569 9.79264 43.3184 10.1865C43.0677 10.5768 42.7257 10.8776 42.2925 11.0889L43.9951 14H42.1313ZM39.5586 7.83936V9.83203H40.8906C41.2344 9.83203 41.5065 9.74072 41.707 9.55811C41.9076 9.37191 42.0078 9.132 42.0078 8.83838C42.0078 8.54476 41.9076 8.30485 41.707 8.11865C41.5065 7.93245 41.2344 7.83936 40.8906 7.83936H39.5586ZM45.166 14V6.29785H46.8311V14H45.166ZM53.1904 7.8501H50.2578V9.54199H52.9058V11.0513H50.2578V14H48.5928V6.29785H53.1904V7.8501ZM54.4795 14V6.29785H56.1445V14H54.4795ZM59.5713 12.4478H62.6489V14H57.9062V6.29785H62.5308V7.83936H59.5713V9.35938H62.2407V10.8687H59.5713V12.4478ZM66.9619 6.29785C67.5205 6.29785 68.0415 6.39453 68.5249 6.58789C69.0119 6.78125 69.4255 7.04801 69.7656 7.38818C70.1094 7.72477 70.3779 8.13118 70.5713 8.60742C70.7682 9.08366 70.8667 9.5957 70.8667 10.1436C70.8667 10.695 70.7682 11.2106 70.5713 11.6904C70.3743 12.1667 70.104 12.5749 69.7603 12.915C69.4201 13.2516 69.0065 13.5166 68.5195 13.71C68.0361 13.9033 67.5169 14 66.9619 14H64.0508V6.29785H66.9619ZM66.9243 12.4531C67.5832 12.4531 68.1203 12.2383 68.5356 11.8086C68.9546 11.3753 69.1641 10.8203 69.1641 10.1436C69.1641 9.4668 68.9546 8.91536 68.5356 8.48926C68.1203 8.05957 67.5832 7.84473 66.9243 7.84473H65.7158V12.4531H66.9243ZM79.4658 9.93945C79.806 10.1149 80.0692 10.3638 80.2554 10.686C80.4416 11.0047 80.5347 11.3682 80.5347 11.7764C80.5347 12.3923 80.2965 12.9168 79.8203 13.3501C79.3477 13.7834 78.7765 14 78.1069 14H74.8359V6.29785H78.021C78.6834 6.29785 79.2349 6.48763 79.6753 6.86719C80.1157 7.24316 80.3359 7.71403 80.3359 8.27979C80.3359 8.60921 80.259 8.92074 80.105 9.21436C79.951 9.50798 79.738 9.74967 79.4658 9.93945ZM78.4829 9.13379C78.6405 8.97982 78.7192 8.78109 78.7192 8.5376C78.7192 8.29411 78.6405 8.09717 78.4829 7.94678C78.3254 7.79639 78.1177 7.72119 77.8599 7.72119H76.4741V9.35938H77.8599C78.1213 9.35938 78.3289 9.28418 78.4829 9.13379ZM77.9512 12.4692C78.2233 12.4692 78.4417 12.3887 78.6064 12.2275C78.7747 12.0664 78.8589 11.8587 78.8589 11.6045C78.8589 11.3538 78.7747 11.1479 78.6064 10.9868C78.4417 10.8257 78.2233 10.7451 77.9512 10.7451H76.4741V12.4692H77.9512ZM87.2754 13.3071C86.6738 13.88 85.9147 14.1665 84.998 14.1665C84.0814 14.1665 83.3205 13.88 82.7153 13.3071C82.1138 12.7306 81.813 11.9948 81.813 11.0996V6.29785H83.4834V11.0244C83.4834 11.5007 83.623 11.882 83.9023 12.1685C84.1852 12.4549 84.5505 12.5981 84.998 12.5981C85.4456 12.5981 85.8091 12.4549 86.0884 12.1685C86.3677 11.882 86.5073 11.5007 86.5073 11.0244V6.29785H88.1777V11.0996C88.1777 11.9948 87.877 12.7306 87.2754 13.3071ZM96.2666 6.29785L93.5542 10.8901V14H91.8462V10.8794L89.1606 6.29785H90.9331L92.7109 9.38086L94.4941 6.29785H96.2666ZM98.9844 12.4478H102.062V14H97.3193V6.29785H101.944V7.83936H98.9844V9.35938H101.654V10.8687H98.9844V12.4478ZM107.702 14L106.198 11.3735H105.129V14H103.464V6.29785H106.574C107.347 6.29785 107.988 6.53955 108.497 7.02295C109.009 7.50277 109.265 8.11149 109.265 8.84912C109.265 9.34684 109.139 9.79264 108.889 10.1865C108.638 10.5768 108.296 10.8776 107.863 11.0889L109.565 14H107.702ZM105.129 7.83936V9.83203H106.461C106.805 9.83203 107.077 9.74072 107.277 9.55811C107.478 9.37191 107.578 9.132 107.578 8.83838C107.578 8.54476 107.478 8.30485 107.277 8.11865C107.077 7.93245 106.805 7.83936 106.461 7.83936H105.129Z" fill="#197AFF"/>
<path d="M9.49999 1.5835C5.13791 1.5835 1.58333 5.13808 1.58333 9.50016C1.58333 13.8622 5.13791 17.4168 9.49999 17.4168C13.8621 17.4168 17.4167 13.8622 17.4167 9.50016C17.4167 5.13808 13.8621 1.5835 9.49999 1.5835ZM13.2842 7.67933L8.79541 12.1681C8.68458 12.2789 8.53416 12.3422 8.37583 12.3422C8.21749 12.3422 8.06708 12.2789 7.95624 12.1681L5.71583 9.92766C5.48624 9.69808 5.48624 9.31808 5.71583 9.0885C5.94541 8.85891 6.32541 8.85891 6.55499 9.0885L8.37583 10.9093L12.445 6.84016C12.6746 6.61058 13.0546 6.61058 13.2842 6.84016C13.5137 7.06975 13.5137 7.44183 13.2842 7.67933Z" fill="#197AFF"/>
</svg>
